<?xml version="1.0" encoding="UTF-8" standalone="no"?>
<svg
   xmlns:dc="http://purl.org/dc/elements/1.1/"
   xmlns:cc="http://creativecommons.org/ns#"
   xmlns:rdf="http://www.w3.org/1999/02/22-rdf-syntax-ns#"
   xmlns:svg="http://www.w3.org/2000/svg"
   xmlns="http://www.w3.org/2000/svg"
   xmlns:sodipodi="http://sodipodi.sourceforge.net/DTD/sodipodi-0.dtd"
   xmlns:inkscape="http://www.inkscape.org/namespaces/inkscape"
   id="svg8"
   version="1.1"
   viewBox="0 0 424.37924 424.37924"
   height="1603.953"
   width="1603.953"
   sodipodi:docname="jithinaji.svg"
   inkscape:version="0.92.3 (2405546, 2018-03-11)">
  <sodipodi:namedview
     pagecolor="#ffffff"
     bordercolor="#666666"
     borderopacity="1"
     objecttolerance="10"
     gridtolerance="10"
     guidetolerance="10"
     inkscape:pageopacity="0"
     inkscape:pageshadow="2"
     inkscape:window-width="1366"
     inkscape:window-height="717"
     id="namedview70"
     showgrid="false"
     units="px"
     fit-margin-top="0"
     fit-margin-left="0"
     fit-margin-right="0"
     fit-margin-bottom="0"
     inkscape:zoom="0.2102413"
     inkscape:cx="581.54116"
     inkscape:cy="640.38586"
     inkscape:window-x="0"
     inkscape:window-y="27"
     inkscape:window-maximized="1"
     inkscape:current-layer="svg8" />
  <defs
     id="defs2" />
  <metadata
     id="metadata5">
    <rdf:RDF>
      <cc:Work
         rdf:about="">
        <dc:format>image/svg+xml</dc:format>
        <dc:type
           rdf:resource="http://purl.org/dc/dcmitype/StillImage" />
        <dc:title></dc:title>
      </cc:Work>
    </rdf:RDF>
  </metadata>
  <g
     id="layer1"
     transform="matrix(1.4434842,0,0,1.1849497,63.271092,35.711895)"
     inkscape:export-xdpi="63.829582"
     inkscape:export-ydpi="63.829582">
    <rect
       ry="1.5488944"
       y="-30.137899"
       x="-43.832203"
       height="358.14114"
       width="293.99646"
       id="rect1097"
       style="opacity:1;fill:#00ff00;fill-opacity:1;stroke:none;stroke-width:1;stroke-linejoin:bevel;stroke-miterlimit:4;stroke-dasharray:none;stroke-dashoffset:0;stroke-opacity:1" />
    <g
       transform="matrix(0.26458333,0,0,0.26458333,2.2911514,71.577514)"
       id="g845" />
    <g
       transform="matrix(0.26458333,0,0,0.26458333,2.2911514,71.577514)"
       id="g847" />
    <g
       transform="matrix(0.26458333,0,0,0.26458333,2.2911514,71.577514)"
       id="g849" />
    <g
       transform="matrix(0.26458333,0,0,0.26458333,2.2911514,71.577514)"
       id="g851" />
    <g
       transform="matrix(0.26458333,0,0,0.26458333,2.2911514,71.577514)"
       id="g853" />
    <g
       transform="matrix(0.26458333,0,0,0.26458333,2.2911514,71.577514)"
       id="g855" />
    <g
       transform="matrix(0.26458333,0,0,0.26458333,2.2911514,71.577514)"
       id="g857" />
    <g
       transform="matrix(0.26458333,0,0,0.26458333,2.2911514,71.577514)"
       id="g859" />
    <g
       transform="matrix(0.26458333,0,0,0.26458333,2.2911514,71.577514)"
       id="g861" />
    <g
       transform="matrix(0.26458333,0,0,0.26458333,2.2911514,71.577514)"
       id="g863" />
    <g
       transform="matrix(0.26458333,0,0,0.26458333,2.2911514,71.577514)"
       id="g865" />
    <g
       transform="matrix(0.26458333,0,0,0.26458333,2.2911514,71.577514)"
       id="g867" />
    <g
       transform="matrix(0.26458333,0,0,0.26458333,2.2911514,71.577514)"
       id="g869" />
    <g
       transform="matrix(0.26458333,0,0,0.26458333,2.2911514,71.577514)"
       id="g871" />
    <g
       transform="matrix(0.26458333,0,0,0.26458333,2.2911514,71.577514)"
       id="g873" />
    <text
       transform="scale(1.0421671,0.95953901)"
       xml:space="preserve"
       style="font-style:normal;font-weight:normal;font-size:34.2412262px;line-height:1.25;font-family:sans-serif;letter-spacing:0px;word-spacing:0px;fill:#35404a;fill-opacity:1;stroke:none;stroke-width:0.26458332"
       x="113.09484"
       y="266.65109"
       id="text1117"><tspan
         id="tspan1115"
         x="113.09484"
         y="266.65109"
         style="font-style:normal;font-variant:normal;font-weight:bold;font-stretch:normal;font-size:82.17894745px;font-family:'Droid Sans';-inkscape-font-specification:'Droid Sans Bold';fill:#35404a;fill-opacity:1;stroke-width:0.26458332">Aji</tspan></text>
    <g
       transform="translate(11.759859,-28.865109)"
       id="g1095">
      <path
         style="fill:#ffc98c;stroke-width:0.26458332"
         d="m 58.105328,187.12653 c -0.0293,0.55304 -0.04688,1.10741 -0.04283,1.66405 v 29.56213 c 0,7.69286 6.236132,13.92944 13.929435,13.92944 h 6.457885 v -49.79936 z"
         id="path815"
         inkscape:connector-curvature="0" />
      <path
         style="fill:#f7a16e;stroke-width:0.26458332"
         d="m 78.449829,182.48279 v 49.79936 h 37.469081 c 7.6933,0 13.92943,-6.23658 13.92943,-13.92944 v -29.67796 c 0,-0.51788 -0.0162,-1.03395 -0.0442,-1.54822 z"
         id="path817"
         inkscape:connector-curvature="0" />
      <rect
         x="71.877014"
         y="218.23596"
         style="fill:#1a3e6e;stroke-width:0.26458332"
         width="30.296803"
         height="6.9649429"
         id="rect823" />
      <path
         style="fill:#1a3e6e;stroke-width:0.26458332"
         d="m 116.1028,283.60629 v -96.47976 h 13.70182 c -0.4417,-8.18278 -4.37602,-15.87293 -11.19493,-21.79852 -6.79728,-5.90711 -15.74493,-9.31137 -24.550601,-9.34023 h -0.112686 c -5.23058,0 -10.551755,1.19622 -15.49568,3.46378 l 15.5394,83.27867 c 4.519797,0 8.183687,3.66389 8.183687,8.18369 v 41.38131 h 0.0946 c -0.0586,0.44801 -0.0924,0.90323 -0.0942,1.36432 -0.005,1.1633 0.91676,2.11837 2.07961,2.11837 h 16.74282 c 1.14392,0 2.07149,-0.92711 2.07149,-2.07149 v -0.25016 c -9e-4,-4.54908 -2.90848,-8.4158 -6.96539,-9.84998 z"
         id="path819"
         inkscape:connector-curvature="0" />
      <path
         style="fill:#315588;stroke-width:0.26458332"
         d="m 78.449829,159.40153 -1.593287,0.81984 c -11.120111,5.72232 -18.175197,15.92794 -18.751665,26.90471 h 13.770331 v 96.49193 c -4.094321,1.48736 -6.971703,5.5213 -6.964942,10.10419 0.0019,1.13671 0.934337,2.05528 2.071499,2.05528 h 16.75183 c 1.143921,0 2.0715,-0.92713 2.0715,-2.07151 v -0.25014 c 0,-0.39304 -0.02344,-0.77975 -0.06535,-1.1606 h 0.06535 v -41.38131 c 0,-4.5198 3.663883,-8.18369 8.183682,-8.18369 v -78.5876 z"
         id="path821"
         inkscape:connector-curvature="0" />
      <path
         style="fill:#ffc98c;stroke-width:0.26458332"
         d="m 116.15373,88.341351 c -6.49755,-4.623463 -14.04527,-7.42828 -22.095993,-7.42828 -21.963029,0 -40.17293,20.874099 -43.553314,42.587419 -1.244884,-0.52372 -2.614165,-0.81354 -4.049701,-0.81354 -5.769639,0 -10.447189,4.67754 -10.447189,10.4472 0,5.76963 4.67755,10.44717 10.447189,10.44717 1.873184,0 3.62918,-0.49532 5.149452,-1.35845 1.275981,4.35978 3.234801,8.43563 5.727271,12.16081 1.221445,1.82631 8.221545,7.30344 18.200438,9.3916 l 23.778971,4.97593 21.339686,-20.92773 c 17.32334,-16.988 15.31629,-45.38503 -4.49681,-59.482129 z"
         id="path825"
         inkscape:connector-curvature="0" />
      <path
         style="fill:#f7a16e;stroke-width:0.26458332"
         d="m 141.45658,122.6874 c -1.34179,0 -2.62543,0.25646 -3.80406,0.71755 -0.0464,-0.31146 -0.0937,-0.62335 -0.14649,-0.93344 -2.33877,-13.77619 -9.97934,-26.32643 -21.3523,-34.129707 6.47952,8.937284 9.75263,19.144237 9.75263,29.828047 0,24.02823 -19.75361,43.50689 -44.120769,43.50689 -9.045906,0 -17.454498,-2.68627 -24.454596,-7.29125 6.728316,9.94464 17.500471,16.99972 29.998426,18.88643 4.430106,0.66841 9.010301,0.66345 13.440409,-0.003 17.10429,-2.57856 30.99722,-14.84259 35.69369,-30.9607 1.48422,0.80993 3.18297,1.27597 4.99306,1.27597 5.77009,0 10.44719,-4.67754 10.44719,-10.44719 0,-5.76964 -4.67756,-10.44854 -10.44719,-10.44854 z"
         id="path827"
         inkscape:connector-curvature="0" />
      <g
         id="g1005"
         transform="matrix(0.26260074,0,0,0.23749329,25.521783,60.046904)"
         style="fill:#35404a;fill-opacity:1;stroke-width:1.0594703">
        <g
           id="g948"
           style="fill:#35404a;fill-opacity:1;stroke-width:1.0594703">
          <g
             id="g946"
             style="fill:#35404a;fill-opacity:1;stroke-width:1.0594703">
            <path
               id="path944"
               d="M 446.782,138.092 C 438.189,78.154 390.351,40.326 384.873,36.161 350.518,4.016 310.684,19.291 291.646,33.678 c -0.495,-0.247 -0.947,-0.606 -1.391,-1.084 -4.497,-4.821 -5.163,-17.852 -4.77,-23.415 0.324,-4.693 -3.209,-8.781 -7.902,-9.114 -2.475,-0.179 -60.493,-3.413 -134.647,70.741 l -9.515,9.506 c -4.198,4.207 -10.018,6.187 -15.206,5.052 -1.664,-0.35 -2.534,-0.802 -2.586,-0.606 -0.017,-0.521 0.188,-3.712 5.973,-11.264 2.748,-3.576 2.236,-8.67 -1.169,-11.631 -3.388,-2.953 -8.508,-2.748 -11.674,0.452 -1.929,1.946 -46.985,48.375 -44.723,106.257 1.195,30.532 15.437,58.232 42.103,82.458 l -0.068,23.04 c 0,58.283 5.726,117.649 47.249,157.082 6.69,6.349 13.892,12.023 21.248,17.348 v 55.006 c 0,4.719 3.823,8.533 8.533,8.533 4.71,0 8.533,-3.814 8.533,-8.533 v -43.213 c 0.239,0.162 0.486,0.324 0.725,0.478 0.631,0.435 1.28,0.87 1.911,1.297 l 8.201,5.504 c 3.234,2.193 6.391,4.523 9.532,6.852 13.662,10.104 27.793,20.548 47.667,20.548 19.866,0 33.997,-10.445 47.659,-20.54 3.149,-2.338 6.306,-4.668 9.54,-6.861 l 8.183,-5.495 c 0.29,-0.196 0.589,-0.401 0.879,-0.597 0.742,-0.486 1.493,-0.99 2.236,-1.493 v 43.52 c 0,4.719 3.823,8.533 8.533,8.533 4.71,0 8.533,-3.814 8.533,-8.533 v -55.33 c 7.194,-5.239 14.234,-10.812 20.787,-17.024 41.728,-39.62 47.479,-99.371 47.479,-158.046 v -22.912 c 27.386,-36.958 38.659,-74.658 33.283,-112.102 z m -50.347,109.414 v 25.6 c 0,54.869 -5.111,110.481 -42.163,145.656 -7.612,7.219 -16.188,13.636 -24.951,19.746 -4.531,3.166 -9.105,6.263 -13.696,9.336 l -8.328,5.598 c -3.43,2.321 -6.776,4.796 -10.112,7.262 -11.972,8.849 -23.27,17.203 -37.513,17.203 -12.467,0 -22.682,-6.4 -33.05,-13.926 -1.485,-1.075 -2.97,-2.167 -4.463,-3.277 -3.337,-2.466 -6.69,-4.941 -10.112,-7.262 l -8.073,-5.427 c -4.71,-3.149 -9.412,-6.332 -14.063,-9.574 -8.721,-6.084 -17.271,-12.484 -24.841,-19.678 -38.69,-36.719 -41.933,-93.935 -41.933,-144.666 l 0.23,-77.79 c 0,-5.769 1.126,-11.358 3.354,-16.614 0.862,-2.057 1.971,-3.951 3.174,-5.751 0.358,-0.538 0.759,-1.024 1.143,-1.536 0.947,-1.246 1.98,-2.432 3.081,-3.541 0.461,-0.469 0.913,-0.939 1.408,-1.374 1.425,-1.28 2.944,-2.466 4.565,-3.507 0.179,-0.119 0.341,-0.256 0.521,-0.375 1.801,-1.118 3.729,-2.039 5.717,-2.85 0.614,-0.247 1.254,-0.444 1.894,-0.666 1.459,-0.512 2.961,-0.939 4.497,-1.289 0.708,-0.145 1.408,-0.316 2.116,-0.427 1.835,-0.299 3.703,-0.486 5.589,-0.555 0.375,-0.008 0.742,-0.068 1.118,-0.068 1.493,-0.009 3.012,0.213 4.531,0.367 1.007,0.102 1.997,0.085 3.012,0.265 2.526,0.427 5.052,1.092 7.56,1.997 13.013,4.71 38.025,10.325 83.251,10.325 45.226,0 70.238,-5.615 83.251,-10.325 17.451,-6.306 36.062,-0.888 45.833,12.279 0.179,0.247 0.41,0.427 0.58,0.674 1.374,1.954 2.56,4.07 3.516,6.349 2.227,5.265 3.354,10.854 3.354,16.623 v 51.198 z"
               style="fill:#35404a;fill-opacity:1;stroke-width:1.0594703"
               inkscape:connector-curvature="0" />
          </g>
        </g>
        <g
           id="g950"
           style="fill:#35404a;fill-opacity:1;stroke-width:1.0594703" />
        <g
           id="g952"
           style="fill:#35404a;fill-opacity:1;stroke-width:1.0594703" />
        <g
           id="g954"
           style="fill:#35404a;fill-opacity:1;stroke-width:1.0594703" />
        <g
           id="g956"
           style="fill:#35404a;fill-opacity:1;stroke-width:1.0594703" />
        <g
           id="g958"
           style="fill:#35404a;fill-opacity:1;stroke-width:1.0594703" />
        <g
           id="g960"
           style="fill:#35404a;fill-opacity:1;stroke-width:1.0594703" />
        <g
           id="g962"
           style="fill:#35404a;fill-opacity:1;stroke-width:1.0594703" />
        <g
           id="g964"
           style="fill:#35404a;fill-opacity:1;stroke-width:1.0594703" />
        <g
           id="g966"
           style="fill:#35404a;fill-opacity:1;stroke-width:1.0594703" />
        <g
           id="g968"
           style="fill:#35404a;fill-opacity:1;stroke-width:1.0594703" />
        <g
           id="g970"
           style="fill:#35404a;fill-opacity:1;stroke-width:1.0594703" />
        <g
           id="g972"
           style="fill:#35404a;fill-opacity:1;stroke-width:1.0594703" />
        <g
           id="g974"
           style="fill:#35404a;fill-opacity:1;stroke-width:1.0594703" />
        <g
           id="g976"
           style="fill:#35404a;fill-opacity:1;stroke-width:1.0594703" />
        <g
           id="g978"
           style="fill:#35404a;fill-opacity:1;stroke-width:1.0594703" />
      </g>
      <rect
         style="opacity:1;fill:#ffc98c;fill-opacity:1;stroke:none;stroke-width:1.01619422;stroke-linejoin:bevel;stroke-miterlimit:4;stroke-dasharray:none;stroke-dashoffset:0;stroke-opacity:1"
         id="rect1022"
         width="10.378507"
         height="10.665833"
         x="11.161876"
         y="142.30147"
         ry="0.52925539"
         transform="matrix(0.9994411,-0.03342897,0.28170547,0.95950093,0,0)" />
      <rect
         transform="matrix(0.85795197,0.5137299,-0.28345091,0.95898675,0,0)"
         ry="0.52925539"
         y="53.589844"
         x="164.53351"
         height="10.665833"
         width="10.378507"
         id="rect1024"
         style="opacity:1;fill:#f7a16e;fill-opacity:1;stroke:none;stroke-width:1.01619422;stroke-linejoin:bevel;stroke-miterlimit:4;stroke-dasharray:none;stroke-dashoffset:0;stroke-opacity:1" />
      <rect
         transform="matrix(0.9994411,-0.03342897,0.28170547,0.95950093,0,0)"
         ry="0.52925539"
         y="149.823"
         x="11.181184"
         height="10.665833"
         width="10.378507"
         id="rect1026"
         style="opacity:1;fill:#ffc98c;fill-opacity:1;stroke:none;stroke-width:1.01619422;stroke-linejoin:bevel;stroke-miterlimit:4;stroke-dasharray:none;stroke-dashoffset:0;stroke-opacity:1" />
      <circle
         style="fill:#ce795f;stroke-width:0.26458332"
         cx="143.10007"
         cy="133.63634"
         r="3.4822462"
         id="circle839" />
      <circle
         style="fill:#f7a16e;stroke-width:0.26458332"
         cx="43.905663"
         cy="133.59836"
         r="3.4822462"
         id="circle837" />
      <g
         style="stroke-width:0.58702654"
         id="g835"
         transform="matrix(0.45071783,0,0,0.45071783,-21.806316,58.962324)">
        <circle
           style="fill:#35404a;stroke-width:0.58702654"
           cx="220.66499"
           cy="152.106"
           r="7.7259998"
           id="circle829" />
        <circle
           style="fill:#35404a;stroke-width:0.58702654"
           cx="289.883"
           cy="152.106"
           r="7.7259998"
           id="circle831" />
        <path
           style="fill:#35404a;stroke-width:0.58702654"
           d="m 261.667,153.369 c -1.459,1.46 -3.4,2.263 -5.463,2.263 -2.063,0 -4.004,-0.804 -5.463,-2.263 -3.017,-3.016 -7.91,-3.017 -10.926,0 -3.018,3.017 -3.018,7.91 -0.001,10.927 4.378,4.378 10.199,6.789 16.39,6.789 6.191,0 12.012,-2.412 16.39,-6.789 3.017,-3.017 3.017,-7.91 -10e-4,-10.927 -3.015,-3.017 -7.908,-3.017 -10.926,0 z"
           id="path833"
           inkscape:connector-curvature="0" />
      </g>
      <rect
         style="opacity:1;fill:#315588;fill-opacity:1;stroke:none;stroke-width:1;stroke-linejoin:bevel;stroke-miterlimit:4;stroke-dasharray:none;stroke-dashoffset:0;stroke-opacity:1"
         id="rect1043"
         width="7.0863485"
         height="15.390979"
         x="69.775963"
         y="169.20845"
         ry="1.5119059" />
      <rect
         ry="1.5119059"
         y="169.20845"
         x="69.775963"
         height="15.390979"
         width="7.0863485"
         id="rect1045"
         style="opacity:1;fill:#315588;fill-opacity:1;stroke:none;stroke-width:1;stroke-linejoin:bevel;stroke-miterlimit:4;stroke-dasharray:none;stroke-dashoffset:0;stroke-opacity:1" />
      <rect
         style="opacity:1;fill:#1a3e6e;fill-opacity:1;stroke:none;stroke-width:1;stroke-linejoin:bevel;stroke-miterlimit:4;stroke-dasharray:none;stroke-dashoffset:0;stroke-opacity:1"
         id="rect1047"
         width="7.0863485"
         height="15.390979"
         x="111.69868"
         y="169.81966"
         ry="1.5119059" />
      <path
         style="fill:#35404a;fill-opacity:1;fill-rule:evenodd;stroke-width:0.26458332"
         d="m 94.269806,138.79299 a 20.458673,18.307962 0 0 0 -20.36356,16.5995 23.868454,20.446119 0 0 1 20.200938,-9.602 23.868454,20.446119 0 0 1 20.574536,10.13065 20.458673,18.307962 0 0 0 -20.411914,-17.12815 z"
         id="path1051"
         inkscape:connector-curvature="0" />
    </g>
    <flowRoot
       style="font-style:normal;font-weight:normal;font-size:40px;line-height:1.25;font-family:sans-serif;letter-spacing:0px;word-spacing:0px;fill:#000000;fill-opacity:1;stroke:none"
       id="flowRoot1099"
       xml:space="preserve"><flowRegion
         id="flowRegion1101"><rect
           y="525.37683"
           x="-108.57143"
           height="380"
           width="294.28571"
           id="rect1103" /></flowRegion><flowPara
         id="flowPara1105" /></flowRoot>    <text
       id="text1109"
       y="176.80356"
       x="9.0714283"
       style="font-style:normal;font-weight:normal;font-size:10.58333302px;line-height:1.25;font-family:sans-serif;letter-spacing:0px;word-spacing:0px;fill:#315588;fill-opacity:1;stroke:none;stroke-width:0.26458332"
       xml:space="preserve"><tspan
         style="font-style:normal;font-variant:normal;font-weight:bold;font-stretch:normal;font-size:25.39999962px;font-family:'Droid Sans';-inkscape-font-specification:'Droid Sans Bold';fill:#315588;fill-opacity:1;stroke-width:0.26458332"
         y="176.80356"
         x="9.0714283"
         id="tspan1107">Jithin</tspan></text>
  </g>
</svg>
